<?xml version="1.0" encoding="utf-8" ?><svg xmlns="http://www.w3.org/2000/svg" version="1.1" viewBox="0 0 2048 1024">
  <defs>
    <g id="icon">
      <polygon points="240.7,662.9 236.6,667.4 235.6,673.3 237.5,680.8 241.5,686.2 247.7,689.6 258.1,687.3 272.9,679.3 282.1,673.3 285.6,669.4 286.5,663.4 284.6,655.4 281.0,650.0 275.6,647.4 271.1,646.4 267.3,647.1 259.8,650.8 248.4,657.4" /><polygon points="337.1,827.1 324.0,818.7 311.6,810.1 300.1,801.2 285.3,788.0 267.3,770.5 250.6,751.9 235.1,732.4 220.3,710.2 206.1,685.4 196.4,666.6 191.1,653.9 186.4,641.3 182.4,628.8 178.4,614.3 174.5,597.8 171.1,577.7 168.4,553.9 167.0,534.2 167.0,518.8 168.4,499.2 171.3,475.6 174.4,456.7 177.8,442.5 181.4,428.9 185.4,415.9 189.9,403.2 194.9,390.7 201.3,377.0 208.9,362.1 217.1,347.6 226.0,333.5 236.9,318.2 249.9,301.6 262.1,287.3 273.6,275.3 288.6,261.6 307.2,246.2 322.9,234.1 335.8,225.5 351.6,216.3 370.3,206.6 384.6,199.6 394.5,195.5 406.4,191.2 420.4,186.7 434.5,182.8 448.7,179.4 466.3,176.3 487.5,173.5 504.8,171.8 518.3,171.3 530.9,171.3 542.8,171.9 561.2,174.0 586.1,177.6 605.3,181.2 618.8,184.7 633.6,189.2 649.6,194.7 664.2,200.5 677.6,206.6 691.9,214.1 707.2,222.8 726.3,236.0 749.3,253.5 767.2,268.8 780.2,281.8 791.4,293.8 800.9,304.9 810.9,317.9 821.5,332.8 830.1,345.9 836.7,357.3 844.4,372.4 853.2,391.1 860.8,410.2 867.3,429.7 872.0,446.0 874.8,459.2 877.7,476.3 880.5,497.5 882.2,513.8 882.7,525.3 882.4,538.4 881.3,553.3 879.7,567.7 877.6,581.6 874.3,598.1 869.8,617.0 868.7,630.3 871.2,637.8 887.1,648.4 916.4,662.1 935.4,668.6 944.2,667.9 950.0,664.7 952.7,659.0 955.6,650.8 958.5,640.3 962.4,621.7 967.3,595.1 970.6,569.8 972.2,545.9 972.2,519.5 970.6,490.6 968.7,469.5 966.6,456.1 963.6,440.4 959.6,422.4 953.1,400.2 944.1,373.7 934.4,349.8 924.1,328.6 911.6,306.1 896.9,282.3 882.6,261.6 868.7,244.1 853.0,226.3 835.4,208.3 819.1,193.1 804.1,180.7 785.6,166.9 763.6,151.9 743.1,139.4 724.1,129.4 707.1,121.1 692.1,114.7 674.1,107.9 653.1,100.9 629.8,94.7 604.3,89.2 580.2,85.3 557.4,83.1 533.7,82.0 509.3,82.0 490.8,82.6 478.4,83.7 463.5,85.5 446.1,88.1 428.9,91.4 411.9,95.4 397.7,99.2 386.2,102.7 371.4,107.9 353.4,114.9 337.5,121.8 323.6,128.4 309.4,135.9 294.8,144.3 280.2,153.4 265.7,163.4 253.4,172.4 243.3,180.3 227.8,194.3 206.8,214.3 188.8,233.1 173.9,250.6 162.2,265.4 153.7,277.4 145.9,289.2 138.9,300.7 131.2,314.5 122.9,330.6 114.6,348.4 106.5,367.7 99.7,385.9 94.2,402.9 89.3,421.3 84.9,440.9 81.9,456.6 80.1,468.3 78.4,484.2 76.8,504.1 76.0,522.5 76.0,539.5 76.6,555.9 77.8,571.7 81.1,594.1 86.4,623.3 93.3,650.5 101.7,675.6 109.2,695.8 115.8,711.2 122.6,725.9 129.8,739.7 136.9,752.3 143.9,763.8 152.4,776.6 162.4,790.6 174.1,805.4 187.6,820.9 199.0,833.5 208.5,843.0 223.3,856.2 243.4,873.1 261.9,887.3 278.9,898.8 297.7,910.0 318.4,920.9 335.9,929.4 350.2,935.5 364.2,940.8 377.7,945.3 391.2,949.3 404.7,952.8 420.9,956.1 439.8,959.2 456.7,961.3 471.6,962.4 490.5,962.7 513.5,962.2 532.2,961.2 546.6,959.6 564.7,956.5 586.6,951.9 605.3,947.1 620.9,942.1 636.1,936.6 650.9,930.4 664.8,924.1 677.8,917.6 690.9,910.4 704.0,902.5 716.0,894.8 726.9,887.2 740.0,877.0 755.2,864.2 770.2,850.0 785.2,834.4 798.4,819.4 809.8,804.8 820.6,790.1 830.7,775.2 837.7,767.7 841.6,767.6 854.4,770.3 876.1,775.8 889.4,777.1 894.3,774.2 896.4,769.0 895.7,761.4 875.1,716.7 834.6,634.7 810.6,586.4 803.0,572.0 797.1,562.9 792.7,559.3 786.4,559.2 778.3,562.6 760.4,576.4 732.6,600.6 711.8,618.3 698.1,629.6 671.8,651.8 632.8,684.8 612.6,703.5 611.1,707.8 613.4,712.8 619.5,718.6 635.5,723.7 661.5,728.2 675.6,731.8 677.8,734.6 676.6,740.4 672.1,749.3 665.4,760.4 656.7,773.7 645.7,788.0 632.4,803.2 620.7,815.0 610.6,823.4 597.5,832.7 581.4,843.1 569.2,850.2 561.2,854.2 546.7,859.2 525.9,865.4 511.1,869.1 502.2,870.2 490.4,870.8 475.6,870.8 458.0,869.2 437.6,866.1 419.4,862.3 403.4,857.8 389.6,853.2 377.9,848.4 365.0,842.3 350.8,835.0" /><polygon points="537.4,336.9 529.0,336.1 517.0,336.1 508.0,338.0 501.8,341.8 498.3,346.8 497.4,352.9 497.0,398.2 497.0,482.8 497.8,528.9 499.5,536.7 504.5,542.0 512.8,544.7 556.2,546.0 634.8,546.0 677.7,545.2 685.0,543.5 689.9,540.9 692.2,537.2 693.6,528.3 693.8,514.2 692.6,504.4 690.0,499.0 684.7,495.5 676.9,493.8 646.0,493.0 592.0,493.0 561.6,492.4 554.8,491.2 551.1,487.9 550.4,482.6 550.0,447.5 549.9,382.6 548.6,347.4 546.0,342.0 542.2,338.5" /><polygon points="279.6,374.1 263.5,363.8 253.5,358.6 249.6,358.6 244.4,362.2 238.1,369.4 236.1,376.6 238.4,383.9 245.5,391.0 257.6,397.9 267.3,402.2 274.4,404.0 279.6,404.3 282.9,403.1 286.2,399.3 289.6,392.9 290.4,387.1 288.6,381.9" /><polygon points="801.9,391.4 809.7,384.5 811.7,378.3 811.2,372.3 808.2,366.3 803.8,362.1 798.1,359.5 793.2,359.1 789.4,360.6 782.2,365.2 771.7,372.7 764.9,378.9 761.8,383.8 762.3,390.3 766.4,398.4 771.8,402.5 778.4,402.6 788.4,398.9" /><polygon points="392.8,785.5 396.4,776.2 396.4,771.8 393.7,767.1 388.2,762.1 381.9,760.3 374.9,761.7 367.4,768.4 359.4,780.4 355.3,790.1 354.9,797.6 357.4,803.6 362.8,808.2 368.0,810.7 372.9,811.2 377.0,810.2 380.2,807.9 385.4,799.7" /><polygon points="213.5,540.9 230.5,540.9 242.3,538.3 249.1,533.1 252.2,527.5 251.7,521.6 248.9,516.8 244.0,513.3 231.4,511.2 211.3,510.5 199.5,511.0 196.0,512.5 193.4,517.7 191.8,526.6 194.5,533.5 201.5,538.5" /><polygon points="351.5,244.0 349.9,249.3 354.2,260.8 364.4,278.6 372.1,288.8 377.4,291.3 382.2,291.9 386.6,290.5 390.6,287.6 394.2,283.3 395.6,278.0 394.8,271.8 391.2,262.5 385.1,250.2 380.0,242.0 376.1,237.9 371.9,235.7 367.5,235.4 362.0,236.8 355.6,239.8" /><polygon points="852.4,523.3 849.0,518.2 842.3,513.4 830.8,511.2 814.7,511.4 804.0,514.5 798.8,520.3 798.1,527.0 801.8,534.6 812.7,538.8 830.8,539.6 843.1,537.8 849.3,533.6 852.4,528.7" /><polygon points="525.3,199.8 518.9,200.4 514.0,202.8 510.6,206.9 509.0,216.2 509.0,230.7 510.4,240.9 513.0,246.8 516.0,250.5 519.5,252.0 524.4,252.1 530.7,250.6 535.1,248.1 537.3,244.3 538.2,233.5 537.7,215.5 535.2,204.8 530.7,201.3" /><polygon points="508.1,814.8 508.1,828.2 508.8,837.2 510.3,841.7 512.9,845.1 516.7,847.3 522.8,847.5 531.4,845.6 536.5,842.5 538.1,838.1 538.5,827.3 537.8,810.2 533.6,799.7 525.9,796.0 519.4,795.4 514.0,798.0 510.5,801.5 508.9,805.9" /><polygon points="689.9,269.4 693.6,260.4 694.1,254.5 691.8,249.2 686.6,244.4 679.6,242.6 670.8,243.9 663.5,250.0 657.6,261.1 654.6,271.1 654.5,280.1 658.6,286.6 666.7,290.7 673.0,291.5 677.4,288.9 683.1,281.6" />
    </g>
  </defs>
  <use href="#icon" fill="#ccc" />
  <use href="#icon" transform="translate(1024 0)" fill="#65bcd4" />
</svg>